<?xml version="1.0" encoding="UTF-8" standalone="no"?>
<!DOCTYPE svg PUBLIC "-//W3C//DTD SVG 1.1//EN"
 "http://www.w3.org/Graphics/SVG/1.1/DTD/svg11.dtd">
<!-- Generated by graphviz version 2.38.0 (20140413.2041)
 -->
<!-- Title: G Pages: 1 -->
<svg width="1114pt" height="1223pt"
 viewBox="54.00 54.00 1060.00 1169.00" xmlns="http://www.w3.org/2000/svg" xmlns:xlink="http://www.w3.org/1999/xlink">
<g id="graph0" class="graph" transform="scale(1 1) rotate(0) translate(58 1165)">
<title>G</title>
<polygon fill="white" stroke="none" points="-4,4 -4,-1111 1002,-1111 1002,4 -4,4"/>
<!-- n1 -->
<g id="node1" class="node"><title>n1</title>
<path fill="#b3e2cd" stroke="#b3e2cd" d="M123.333,-91C123.333,-91 75.6667,-91 75.6667,-91 70.3333,-91 65,-85.6667 65,-80.3333 65,-80.3333 65,-69.6667 65,-69.6667 65,-64.3333 70.3333,-59 75.6667,-59 75.6667,-59 123.333,-59 123.333,-59 128.667,-59 134,-64.3333 134,-69.6667 134,-69.6667 134,-80.3333 134,-80.3333 134,-85.6667 128.667,-91 123.333,-91"/>
<text text-anchor="middle" x="99.5" y="-78.2" font-family="Helvetica,sans-Serif" font-size="11.00">mysql</text>
<text text-anchor="middle" x="99.5" y="-66.2" font-family="Helvetica,sans-Serif" font-size="11.00">datasheets</text>
</g>
<!-- n8 -->
<g id="node8" class="node"><title>n8</title>
<path fill="#fdcdac" stroke="#fdcdac" d="M513.833,-100C513.833,-100 316.167,-100 316.167,-100 310.833,-100 305.5,-94.6667 305.5,-89.3333 305.5,-89.3333 305.5,-78.6667 305.5,-78.6667 305.5,-73.3333 310.833,-68 316.167,-68 316.167,-68 513.833,-68 513.833,-68 519.167,-68 524.5,-73.3333 524.5,-78.6667 524.5,-78.6667 524.5,-89.3333 524.5,-89.3333 524.5,-94.6667 519.167,-100 513.833,-100"/>
<text text-anchor="middle" x="415" y="-87.2" font-family="Helvetica,sans-Serif" font-size="11.00">php</text>
<text text-anchor="middle" x="415" y="-75.2" font-family="Helvetica,sans-Serif" font-size="11.00">ElecenaModelsDatasheet::getOtherCodes</text>
</g>
<!-- n1&#45;&gt;n8 -->
<g id="edge19" class="edge"><title>n1&#45;&gt;n8</title>
<path fill="none" stroke="black" d="M134.05,-75.9632C172.42,-77.0647 237.397,-78.9301 295.097,-80.5865"/>
<polygon fill="black" stroke="black" points="295.308,-84.0939 305.404,-80.8824 295.509,-77.0968 295.308,-84.0939"/>
<text text-anchor="middle" x="248.5" y="-82.8" font-family="Helvetica,sans-Serif" font-size="9.00">0.001 QPS</text>
</g>
<!-- n9 -->
<g id="node9" class="node"><title>n9</title>
<path fill="#fdcdac" stroke="#fdcdac" d="M507.333,-32C507.333,-32 322.667,-32 322.667,-32 317.333,-32 312,-26.6667 312,-21.3333 312,-21.3333 312,-10.6667 312,-10.6667 312,-5.33333 317.333,-0 322.667,-0 322.667,-0 507.333,-0 507.333,-0 512.667,-0 518,-5.33333 518,-10.6667 518,-10.6667 518,-21.3333 518,-21.3333 518,-26.6667 512.667,-32 507.333,-32"/>
<text text-anchor="middle" x="415" y="-19.2" font-family="Helvetica,sans-Serif" font-size="11.00">php</text>
<text text-anchor="middle" x="415" y="-7.2" font-family="Helvetica,sans-Serif" font-size="11.00">ElecenaModelsDatasheet::newFromIds</text>
</g>
<!-- n1&#45;&gt;n9 -->
<g id="edge13" class="edge"><title>n1&#45;&gt;n9</title>
<path fill="none" stroke="black" d="M134.05,-68.686C177.831,-60.4464 256.253,-45.6876 318.979,-33.8827"/>
<polygon fill="black" stroke="black" points="319.724,-37.3041 328.904,-32.0149 318.429,-30.4249 319.724,-37.3041"/>
<text text-anchor="middle" x="248.5" y="-53.8" font-family="Helvetica,sans-Serif" font-size="9.00">0.013 QPS</text>
</g>
<!-- n2 -->
<g id="node2" class="node"><title>n2</title>
<path fill="#b3e2cd" stroke="#b3e2cd" d="M124.333,-193C124.333,-193 74.6667,-193 74.6667,-193 69.3333,-193 64,-187.667 64,-182.333 64,-182.333 64,-171.667 64,-171.667 64,-166.333 69.3333,-161 74.6667,-161 74.6667,-161 124.333,-161 124.333,-161 129.667,-161 135,-166.333 135,-171.667 135,-171.667 135,-182.333 135,-182.333 135,-187.667 129.667,-193 124.333,-193"/>
<text text-anchor="middle" x="99.5" y="-180.2" font-family="Helvetica,sans-Serif" font-size="11.00">mysql</text>
<text text-anchor="middle" x="99.5" y="-168.2" font-family="Helvetica,sans-Serif" font-size="11.00">parameters</text>
</g>
<!-- n20 -->
<g id="node20" class="node"><title>n20</title>
<path fill="#fdcdac" stroke="#fdcdac" d="M457.333,-244C457.333,-244 372.667,-244 372.667,-244 367.333,-244 362,-238.667 362,-233.333 362,-233.333 362,-222.667 362,-222.667 362,-217.333 367.333,-212 372.667,-212 372.667,-212 457.333,-212 457.333,-212 462.667,-212 468,-217.333 468,-222.667 468,-222.667 468,-233.333 468,-233.333 468,-238.667 462.667,-244 457.333,-244"/>
<text text-anchor="middle" x="415" y="-231.2" font-family="Helvetica,sans-Serif" font-size="11.00">php</text>
<text text-anchor="middle" x="415" y="-219.2" font-family="Helvetica,sans-Serif" font-size="11.00">Parameters::exists</text>
</g>
<!-- n2&#45;&gt;n20 -->
<g id="edge4" class="edge"><title>n2&#45;&gt;n20</title>
<path fill="none" stroke="black" d="M135.248,-182.653C187.455,-191.146 286.916,-207.326 351.824,-217.885"/>
<polygon fill="black" stroke="black" points="351.5,-221.378 361.932,-219.53 352.624,-214.469 351.5,-221.378"/>
<text text-anchor="middle" x="248.5" y="-207.8" font-family="Helvetica,sans-Serif" font-size="9.00">0.029 QPS</text>
</g>
<!-- n22 -->
<g id="node22" class="node"><title>n22</title>
<path fill="#fdcdac" stroke="#fdcdac" d="M479.833,-176C479.833,-176 350.167,-176 350.167,-176 344.833,-176 339.5,-170.667 339.5,-165.333 339.5,-165.333 339.5,-154.667 339.5,-154.667 339.5,-149.333 344.833,-144 350.167,-144 350.167,-144 479.833,-144 479.833,-144 485.167,-144 490.5,-149.333 490.5,-154.667 490.5,-154.667 490.5,-165.333 490.5,-165.333 490.5,-170.667 485.167,-176 479.833,-176"/>
<text text-anchor="middle" x="415" y="-163.2" font-family="Helvetica,sans-Serif" font-size="11.00">php</text>
<text text-anchor="middle" x="415" y="-151.2" font-family="Helvetica,sans-Serif" font-size="11.00">Parameters::newFromCode</text>
</g>
<!-- n2&#45;&gt;n22 -->
<g id="edge7" class="edge"><title>n2&#45;&gt;n22</title>
<path fill="none" stroke="black" d="M135.248,-175.116C181.705,-172.597 265.579,-168.048 329.228,-164.597"/>
<polygon fill="black" stroke="black" points="329.465,-168.089 339.261,-164.053 329.086,-161.1 329.465,-168.089"/>
<text text-anchor="middle" x="248.5" y="-173.8" font-family="Helvetica,sans-Serif" font-size="9.00">0.030 QPS</text>
</g>
<!-- n3 -->
<g id="node3" class="node"><title>n3</title>
<path fill="#b3e2cd" stroke="#b3e2cd" d="M121.333,-312C121.333,-312 77.6667,-312 77.6667,-312 72.3333,-312 67,-306.667 67,-301.333 67,-301.333 67,-290.667 67,-290.667 67,-285.333 72.3333,-280 77.6667,-280 77.6667,-280 121.333,-280 121.333,-280 126.667,-280 132,-285.333 132,-290.667 132,-290.667 132,-301.333 132,-301.333 132,-306.667 126.667,-312 121.333,-312"/>
<text text-anchor="middle" x="99.5" y="-299.2" font-family="Helvetica,sans-Serif" font-size="11.00">mysql</text>
<text text-anchor="middle" x="99.5" y="-287.2" font-family="Helvetica,sans-Serif" font-size="11.00">producers</text>
</g>
<!-- n24 -->
<g id="node24" class="node"><title>n24</title>
<path fill="#fdcdac" stroke="#fdcdac" d="M451.833,-312C451.833,-312 378.167,-312 378.167,-312 372.833,-312 367.5,-306.667 367.5,-301.333 367.5,-301.333 367.5,-290.667 367.5,-290.667 367.5,-285.333 372.833,-280 378.167,-280 378.167,-280 451.833,-280 451.833,-280 457.167,-280 462.5,-285.333 462.5,-290.667 462.5,-290.667 462.5,-301.333 462.5,-301.333 462.5,-306.667 457.167,-312 451.833,-312"/>
<text text-anchor="middle" x="415" y="-299.2" font-family="Helvetica,sans-Serif" font-size="11.00">php</text>
<text text-anchor="middle" x="415" y="-287.2" font-family="Helvetica,sans-Serif" font-size="11.00">db_mysql::query</text>
</g>
<!-- n3&#45;&gt;n24 -->
<g id="edge10" class="edge"><title>n3&#45;&gt;n24</title>
<path fill="none" stroke="black" d="M132.285,-296C185.036,-296 291.366,-296 357.245,-296"/>
<polygon fill="black" stroke="black" points="357.456,-299.5 367.456,-296 357.456,-292.5 357.456,-299.5"/>
<text text-anchor="middle" x="248.5" y="-298.8" font-family="Helvetica,sans-Serif" font-size="9.00">0.066 QPS</text>
</g>
<!-- n4 -->
<g id="node4" class="node"><title>n4</title>
<path fill="#b3e2cd" stroke="#b3e2cd" d="M686.333,-464C686.333,-464 649.667,-464 649.667,-464 644.333,-464 639,-458.667 639,-453.333 639,-453.333 639,-442.667 639,-442.667 639,-437.333 644.333,-432 649.667,-432 649.667,-432 686.333,-432 686.333,-432 691.667,-432 697,-437.333 697,-442.667 697,-442.667 697,-453.333 697,-453.333 697,-458.667 691.667,-464 686.333,-464"/>
<text text-anchor="middle" x="668" y="-451.2" font-family="Helvetica,sans-Serif" font-size="11.00">mysql</text>
<text text-anchor="middle" x="668" y="-439.2" font-family="Helvetica,sans-Serif" font-size="11.00">products</text>
</g>
<!-- n10 -->
<g id="node10" class="node"><title>n10</title>
<path fill="#fdcdac" stroke="#fdcdac" d="M987.333,-532C987.333,-532 814.667,-532 814.667,-532 809.333,-532 804,-526.667 804,-521.333 804,-521.333 804,-510.667 804,-510.667 804,-505.333 809.333,-500 814.667,-500 814.667,-500 987.333,-500 987.333,-500 992.667,-500 998,-505.333 998,-510.667 998,-510.667 998,-521.333 998,-521.333 998,-526.667 992.667,-532 987.333,-532"/>
<text text-anchor="middle" x="901" y="-519.2" font-family="Helvetica,sans-Serif" font-size="11.00">php</text>
<text text-anchor="middle" x="901" y="-507.2" font-family="Helvetica,sans-Serif" font-size="11.00">ElecenaModelsProduct::newFromIds</text>
</g>
<!-- n4&#45;&gt;n10 -->
<g id="edge1" class="edge"><title>n4&#45;&gt;n10</title>
<path fill="none" stroke="black" d="M697.209,-456.567C708.076,-459.852 720.609,-463.621 732,-467 765.774,-477.018 803.418,-488.013 834.498,-497.045"/>
<polygon fill="black" stroke="black" points="833.766,-500.477 844.345,-499.905 835.718,-493.755 833.766,-500.477"/>
<text text-anchor="middle" x="754.5" y="-482.8" font-family="Helvetica,sans-Serif" font-size="9.00">0.083 QPS</text>
</g>
<!-- n18 -->
<g id="node18" class="node"><title>n18</title>
<path fill="#fdcdac" stroke="#fdcdac" d="M969.833,-464C969.833,-464 832.167,-464 832.167,-464 826.833,-464 821.5,-458.667 821.5,-453.333 821.5,-453.333 821.5,-442.667 821.5,-442.667 821.5,-437.333 826.833,-432 832.167,-432 832.167,-432 969.833,-432 969.833,-432 975.167,-432 980.5,-437.333 980.5,-442.667 980.5,-442.667 980.5,-453.333 980.5,-453.333 980.5,-458.667 975.167,-464 969.833,-464"/>
<text text-anchor="middle" x="901" y="-451.2" font-family="Helvetica,sans-Serif" font-size="11.00">php</text>
<text text-anchor="middle" x="901" y="-439.2" font-family="Helvetica,sans-Serif" font-size="11.00">ImageBot::getImagesToFetch</text>
</g>
<!-- n4&#45;&gt;n18 -->
<g id="edge23" class="edge"><title>n4&#45;&gt;n18</title>
<path fill="none" stroke="black" d="M697.325,-448C725.646,-448 770.686,-448 811.122,-448"/>
<polygon fill="black" stroke="black" points="811.29,-451.5 821.29,-448 811.29,-444.5 811.29,-451.5"/>
<text text-anchor="middle" x="754.5" y="-450.8" font-family="Helvetica,sans-Serif" font-size="9.00">0.001 QPS</text>
</g>
<!-- n19 -->
<g id="node19" class="node"><title>n19</title>
<path fill="#fdcdac" stroke="#fdcdac" d="M927.333,-396C927.333,-396 874.667,-396 874.667,-396 869.333,-396 864,-390.667 864,-385.333 864,-385.333 864,-374.667 864,-374.667 864,-369.333 869.333,-364 874.667,-364 874.667,-364 927.333,-364 927.333,-364 932.667,-364 938,-369.333 938,-374.667 938,-374.667 938,-385.333 938,-385.333 938,-390.667 932.667,-396 927.333,-396"/>
<text text-anchor="middle" x="901" y="-383.2" font-family="Helvetica,sans-Serif" font-size="11.00">php</text>
<text text-anchor="middle" x="901" y="-371.2" font-family="Helvetica,sans-Serif" font-size="11.00">Indexer::run</text>
</g>
<!-- n4&#45;&gt;n19 -->
<g id="edge6" class="edge"><title>n4&#45;&gt;n19</title>
<path fill="none" stroke="black" d="M697.209,-439.433C708.076,-436.148 720.609,-432.379 732,-429 773.179,-416.785 820.112,-403.118 853.885,-393.327"/>
<polygon fill="black" stroke="black" points="855.292,-396.564 863.923,-390.419 853.344,-389.84 855.292,-396.564"/>
<text text-anchor="middle" x="754.5" y="-431.8" font-family="Helvetica,sans-Serif" font-size="9.00">0.011 QPS</text>
</g>
<!-- n4&#45;&gt;n24 -->
<g id="edge15" class="edge"><title>n4&#45;&gt;n24</title>
<path fill="none" stroke="black" d="M639.904,-431.741C618.048,-418.615 586.523,-399.654 559,-383 522.207,-360.736 480.167,-335.14 451.241,-317.505"/>
<polygon fill="black" stroke="black" points="452.693,-314.291 442.333,-312.073 449.049,-320.267 452.693,-314.291"/>
<text text-anchor="middle" x="581.5" y="-412.8" font-family="Helvetica,sans-Serif" font-size="9.00">0.009 QPS</text>
</g>
<!-- n4&#45;&gt;n24 -->
<g id="edge17" class="edge"><title>n4&#45;&gt;n24</title>
<path fill="none" stroke="black" d="M657.026,-431.726C645.924,-414.792 626.549,-388.49 604,-372 564.311,-342.976 511.972,-323.001 472.598,-310.839"/>
<polygon fill="black" stroke="black" points="473.467,-307.446 462.883,-307.915 471.45,-314.148 473.467,-307.446"/>
<text text-anchor="middle" x="581.5" y="-374.8" font-family="Helvetica,sans-Serif" font-size="9.00">0.009 QPS</text>
</g>
<!-- n5 -->
<g id="node5" class="node"><title>n5</title>
<path fill="#b3e2cd" stroke="#b3e2cd" d="M679.833,-222C679.833,-222 656.167,-222 656.167,-222 650.833,-222 645.5,-216.667 645.5,-211.333 645.5,-211.333 645.5,-200.667 645.5,-200.667 645.5,-195.333 650.833,-190 656.167,-190 656.167,-190 679.833,-190 679.833,-190 685.167,-190 690.5,-195.333 690.5,-200.667 690.5,-200.667 690.5,-211.333 690.5,-211.333 690.5,-216.667 685.167,-222 679.833,-222"/>
<text text-anchor="middle" x="668" y="-209.2" font-family="Helvetica,sans-Serif" font-size="11.00">mysql</text>
<text text-anchor="middle" x="668" y="-197.2" font-family="Helvetica,sans-Serif" font-size="11.00">shops</text>
</g>
<!-- n5&#45;&gt;n24 -->
<g id="edge14" class="edge"><title>n5&#45;&gt;n24</title>
<path fill="none" stroke="black" d="M645.258,-201.66C622.018,-198.251 585.01,-196.477 559,-213 538.012,-226.333 551.395,-246.44 532,-262 515.049,-275.6 492.831,-283.76 472.38,-288.657"/>
<polygon fill="black" stroke="black" points="471.539,-285.258 462.514,-290.808 473.03,-292.097 471.539,-285.258"/>
<text text-anchor="middle" x="581.5" y="-215.8" font-family="Helvetica,sans-Serif" font-size="9.00">0.010 QPS</text>
</g>
<!-- n6 -->
<g id="node6" class="node"><title>n6</title>
<path fill="#b3e2cd" stroke="#b3e2cd" d="M694.333,-133C694.333,-133 641.667,-133 641.667,-133 636.333,-133 631,-127.667 631,-122.333 631,-122.333 631,-111.667 631,-111.667 631,-106.333 636.333,-101 641.667,-101 641.667,-101 694.333,-101 694.333,-101 699.667,-101 705,-106.333 705,-111.667 705,-111.667 705,-122.333 705,-122.333 705,-127.667 699.667,-133 694.333,-133"/>
<text text-anchor="middle" x="668" y="-120.2" font-family="Helvetica,sans-Serif" font-size="11.00">mysql</text>
<text text-anchor="middle" x="668" y="-108.2" font-family="Helvetica,sans-Serif" font-size="11.00">shops_stats</text>
</g>
<!-- n7 -->
<g id="node7" class="node"><title>n7</title>
<path fill="#b3e2cd" stroke="#b3e2cd" d="M687.333,-298C687.333,-298 648.667,-298 648.667,-298 643.333,-298 638,-292.667 638,-287.333 638,-287.333 638,-276.667 638,-276.667 638,-271.333 643.333,-266 648.667,-266 648.667,-266 687.333,-266 687.333,-266 692.667,-266 698,-271.333 698,-276.667 698,-276.667 698,-287.333 698,-287.333 698,-292.667 692.667,-298 687.333,-298"/>
<text text-anchor="middle" x="668" y="-285.2" font-family="Helvetica,sans-Serif" font-size="11.00">mysql</text>
<text text-anchor="middle" x="668" y="-273.2" font-family="Helvetica,sans-Serif" font-size="11.00">unknown</text>
</g>
<!-- n11 -->
<g id="node11" class="node"><title>n11</title>
<path fill="#fdcdac" stroke="#fdcdac" d="M493.833,-813C493.833,-813 336.167,-813 336.167,-813 330.833,-813 325.5,-807.667 325.5,-802.333 325.5,-802.333 325.5,-791.667 325.5,-791.667 325.5,-786.333 330.833,-781 336.167,-781 336.167,-781 493.833,-781 493.833,-781 499.167,-781 504.5,-786.333 504.5,-791.667 504.5,-791.667 504.5,-802.333 504.5,-802.333 504.5,-807.667 499.167,-813 493.833,-813"/>
<text text-anchor="middle" x="415" y="-800.2" font-family="Helvetica,sans-Serif" font-size="11.00">php</text>
<text text-anchor="middle" x="415" y="-788.2" font-family="Helvetica,sans-Serif" font-size="11.00">ElecenaServicesSearch::products</text>
</g>
<!-- n12 -->
<g id="node12" class="node"><title>n12</title>
<path fill="#fdcdac" stroke="#fdcdac" d="M507.333,-745C507.333,-745 322.667,-745 322.667,-745 317.333,-745 312,-739.667 312,-734.333 312,-734.333 312,-723.667 312,-723.667 312,-718.333 317.333,-713 322.667,-713 322.667,-713 507.333,-713 507.333,-713 512.667,-713 518,-718.333 518,-723.667 518,-723.667 518,-734.333 518,-734.333 518,-739.667 512.667,-745 507.333,-745"/>
<text text-anchor="middle" x="415" y="-732.2" font-family="Helvetica,sans-Serif" font-size="11.00">php</text>
<text text-anchor="middle" x="415" y="-720.2" font-family="Helvetica,sans-Serif" font-size="11.00">ElecenaServicesSphinx::getIndexCount</text>
</g>
<!-- n13 -->
<g id="node13" class="node"><title>n13</title>
<path fill="#fdcdac" stroke="#fdcdac" d="M188.333,-932C188.333,-932 10.6667,-932 10.6667,-932 5.33333,-932 0,-926.667 0,-921.333 0,-921.333 0,-910.667 0,-910.667 0,-905.333 5.33333,-900 10.6667,-900 10.6667,-900 188.333,-900 188.333,-900 193.667,-900 199,-905.333 199,-910.667 199,-910.667 199,-921.333 199,-921.333 199,-926.667 193.667,-932 188.333,-932"/>
<text text-anchor="middle" x="99.5" y="-919.2" font-family="Helvetica,sans-Serif" font-size="11.00">php</text>
<text text-anchor="middle" x="99.5" y="-907.2" font-family="Helvetica,sans-Serif" font-size="11.00">ElecenaServicesSphinx::getKeywords</text>
</g>
<!-- n28 -->
<g id="node28" class="node"><title>n28</title>
<path fill="#cbd5e8" stroke="#cbd5e8" d="M434.333,-907C434.333,-907 395.667,-907 395.667,-907 390.333,-907 385,-901.667 385,-896.333 385,-896.333 385,-885.667 385,-885.667 385,-880.333 390.333,-875 395.667,-875 395.667,-875 434.333,-875 434.333,-875 439.667,-875 445,-880.333 445,-885.667 445,-885.667 445,-896.333 445,-896.333 445,-901.667 439.667,-907 434.333,-907"/>
<text text-anchor="middle" x="415" y="-894.2" font-family="Helvetica,sans-Serif" font-size="11.00">sphinx</text>
<text text-anchor="middle" x="415" y="-882.2" font-family="Helvetica,sans-Serif" font-size="11.00">unknown</text>
</g>
<!-- n13&#45;&gt;n28 -->
<g id="edge5" class="edge"><title>n13&#45;&gt;n28</title>
<path fill="none" stroke="black" d="M199.263,-908.124C258.622,-903.391 330.896,-897.627 374.631,-894.139"/>
<polygon fill="black" stroke="black" points="375.154,-897.609 384.844,-893.325 374.598,-890.631 375.154,-897.609"/>
<text text-anchor="middle" x="248.5" y="-907.8" font-family="Helvetica,sans-Serif" font-size="9.00">0.031 QPS</text>
</g>
<!-- n14 -->
<g id="node14" class="node"><title>n14</title>
<path fill="#fdcdac" stroke="#fdcdac" d="M521.333,-677C521.333,-677 308.667,-677 308.667,-677 303.333,-677 298,-671.667 298,-666.333 298,-666.333 298,-655.667 298,-655.667 298,-650.333 303.333,-645 308.667,-645 308.667,-645 521.333,-645 521.333,-645 526.667,-645 532,-650.333 532,-655.667 532,-655.667 532,-666.333 532,-666.333 532,-671.667 526.667,-677 521.333,-677"/>
<text text-anchor="middle" x="415" y="-664.2" font-family="Helvetica,sans-Serif" font-size="11.00">php</text>
<text text-anchor="middle" x="415" y="-652.2" font-family="Helvetica,sans-Serif" font-size="11.00">ElecenaServicesSphinx::getProductsForTags</text>
</g>
<!-- n15 -->
<g id="node15" class="node"><title>n15</title>
<path fill="#fdcdac" stroke="#fdcdac" d="M182.833,-864C182.833,-864 16.1667,-864 16.1667,-864 10.8333,-864 5.5,-858.667 5.5,-853.333 5.5,-853.333 5.5,-842.667 5.5,-842.667 5.5,-837.333 10.8333,-832 16.1667,-832 16.1667,-832 182.833,-832 182.833,-832 188.167,-832 193.5,-837.333 193.5,-842.667 193.5,-842.667 193.5,-853.333 193.5,-853.333 193.5,-858.667 188.167,-864 182.833,-864"/>
<text text-anchor="middle" x="99.5" y="-851.2" font-family="Helvetica,sans-Serif" font-size="11.00">php</text>
<text text-anchor="middle" x="99.5" y="-839.2" font-family="Helvetica,sans-Serif" font-size="11.00">ElecenaServicesSphinx::getSnippet</text>
</g>
<!-- n15&#45;&gt;n28 -->
<g id="edge3" class="edge"><title>n15&#45;&gt;n28</title>
<path fill="none" stroke="black" d="M193.712,-860.785C254.16,-869.076 329.784,-879.449 374.865,-885.632"/>
<polygon fill="black" stroke="black" points="374.439,-889.107 384.822,-886.998 375.391,-882.171 374.439,-889.107"/>
<text text-anchor="middle" x="248.5" y="-872.8" font-family="Helvetica,sans-Serif" font-size="9.00">0.011 QPS</text>
</g>
<!-- n16 -->
<g id="node16" class="node"><title>n16</title>
<path fill="#fdcdac" stroke="#fdcdac" d="M488.333,-1000C488.333,-1000 341.667,-1000 341.667,-1000 336.333,-1000 331,-994.667 331,-989.333 331,-989.333 331,-978.667 331,-978.667 331,-973.333 336.333,-968 341.667,-968 341.667,-968 488.333,-968 488.333,-968 493.667,-968 499,-973.333 499,-978.667 499,-978.667 499,-989.333 499,-989.333 499,-994.667 493.667,-1000 488.333,-1000"/>
<text text-anchor="middle" x="415" y="-987.2" font-family="Helvetica,sans-Serif" font-size="11.00">php</text>
<text text-anchor="middle" x="415" y="-975.2" font-family="Helvetica,sans-Serif" font-size="11.00">ElecenaServicesSphinx::search</text>
</g>
<!-- n17 -->
<g id="node17" class="node"><title>n17</title>
<path fill="#fdcdac" stroke="#fdcdac" d="M465.333,-541C465.333,-541 364.667,-541 364.667,-541 359.333,-541 354,-535.667 354,-530.333 354,-530.333 354,-519.667 354,-519.667 354,-514.333 359.333,-509 364.667,-509 364.667,-509 465.333,-509 465.333,-509 470.667,-509 476,-514.333 476,-519.667 476,-519.667 476,-530.333 476,-530.333 476,-535.667 470.667,-541 465.333,-541"/>
<text text-anchor="middle" x="415" y="-528.2" font-family="Helvetica,sans-Serif" font-size="11.00">php</text>
<text text-anchor="middle" x="415" y="-516.2" font-family="Helvetica,sans-Serif" font-size="11.00">ImageBot::fetchImage</text>
</g>
<!-- n17&#45;&gt;n4 -->
<g id="edge8" class="edge"><title>n17&#45;&gt;n4</title>
<path fill="none" stroke="black" d="M476.268,-517.227C513.869,-511.155 562.783,-501.002 604,-485 614.484,-480.93 625.263,-475.24 634.875,-469.542"/>
<polygon fill="black" stroke="black" points="636.998,-472.346 643.685,-464.128 633.333,-466.382 636.998,-472.346"/>
<text text-anchor="middle" x="581.5" y="-502.8" font-family="Helvetica,sans-Serif" font-size="9.00">0.986 QPS</text>
</g>
<!-- n21 -->
<g id="node21" class="node"><title>n21</title>
<path fill="#fdcdac" stroke="#fdcdac" d="M467.833,-1102C467.833,-1102 362.167,-1102 362.167,-1102 356.833,-1102 351.5,-1096.67 351.5,-1091.33 351.5,-1091.33 351.5,-1080.67 351.5,-1080.67 351.5,-1075.33 356.833,-1070 362.167,-1070 362.167,-1070 467.833,-1070 467.833,-1070 473.167,-1070 478.5,-1075.33 478.5,-1080.67 478.5,-1080.67 478.5,-1091.33 478.5,-1091.33 478.5,-1096.67 473.167,-1102 467.833,-1102"/>
<text text-anchor="middle" x="415" y="-1089.2" font-family="Helvetica,sans-Serif" font-size="11.00">php</text>
<text text-anchor="middle" x="415" y="-1077.2" font-family="Helvetica,sans-Serif" font-size="11.00">Parameters::getSimilar</text>
</g>
<!-- n23 -->
<g id="node23" class="node"><title>n23</title>
<path fill="#fdcdac" stroke="#fdcdac" d="M480.333,-609C480.333,-609 349.667,-609 349.667,-609 344.333,-609 339,-603.667 339,-598.333 339,-598.333 339,-587.667 339,-587.667 339,-582.333 344.333,-577 349.667,-577 349.667,-577 480.333,-577 480.333,-577 485.667,-577 491,-582.333 491,-587.667 491,-587.667 491,-598.333 491,-598.333 491,-603.667 485.667,-609 480.333,-609"/>
<text text-anchor="middle" x="415" y="-596.2" font-family="Helvetica,sans-Serif" font-size="11.00">php</text>
<text text-anchor="middle" x="415" y="-584.2" font-family="Helvetica,sans-Serif" font-size="11.00">StatsController::rebuildStats</text>
</g>
<!-- n24&#45;&gt;n4 -->
<g id="edge16" class="edge"><title>n24&#45;&gt;n4</title>
<path fill="none" stroke="black" d="M428.113,-312.241C450.491,-340.942 501.325,-400.306 559,-429 580.533,-439.713 607.113,-444.48 628.516,-446.56"/>
<polygon fill="black" stroke="black" points="628.311,-450.055 638.562,-447.38 628.88,-443.078 628.311,-450.055"/>
<text text-anchor="middle" x="581.5" y="-445.8" font-family="Helvetica,sans-Serif" font-size="9.00">0.021 QPS</text>
</g>
<!-- n24&#45;&gt;n5 -->
<g id="edge9" class="edge"><title>n24&#45;&gt;n5</title>
<path fill="none" stroke="black" d="M462.746,-283.829C484.08,-277.885 509.54,-270.241 532,-262 544.328,-257.477 546.918,-255.145 559,-250 584.846,-238.995 614.401,-226.994 636.052,-218.309"/>
<polygon fill="black" stroke="black" points="637.418,-221.533 645.402,-214.568 634.817,-215.034 637.418,-221.533"/>
<text text-anchor="middle" x="581.5" y="-252.8" font-family="Helvetica,sans-Serif" font-size="9.00">0.010 QPS</text>
</g>
<!-- n24&#45;&gt;n6 -->
<g id="edge20" class="edge"><title>n24&#45;&gt;n6</title>
<path fill="none" stroke="black" d="M462.636,-292.461C486.135,-288.394 513.492,-279.842 532,-262 559.32,-235.663 535.175,-210.536 559,-181 575.331,-160.756 599.906,-145.478 621.489,-134.935"/>
<polygon fill="black" stroke="black" points="623.261,-137.971 630.839,-130.565 620.297,-131.629 623.261,-137.971"/>
<text text-anchor="middle" x="581.5" y="-183.8" font-family="Helvetica,sans-Serif" font-size="9.00">0.001 QPS</text>
</g>
<!-- n24&#45;&gt;n7 -->
<g id="edge22" class="edge"><title>n24&#45;&gt;n7</title>
<path fill="none" stroke="black" d="M462.611,-283.487C500.575,-274.76 555.614,-265.433 604,-270 611.785,-270.735 620.039,-271.969 627.92,-273.374"/>
<polygon fill="black" stroke="black" points="627.516,-276.86 637.994,-275.292 628.825,-269.984 627.516,-276.86"/>
<text text-anchor="middle" x="581.5" y="-272.8" font-family="Helvetica,sans-Serif" font-size="9.00">0.001 QPS</text>
</g>
<!-- n24&#45;&gt;n7 -->
<g id="edge25" class="edge"><title>n24&#45;&gt;n7</title>
<path fill="none" stroke="black" d="M462.623,-293.4C510.135,-290.749 583.013,-286.685 627.693,-284.192"/>
<polygon fill="black" stroke="black" points="628.078,-287.676 637.868,-283.625 627.688,-280.687 628.078,-287.676"/>
<text text-anchor="middle" x="581.5" y="-290.8" font-family="Helvetica,sans-Serif" font-size="9.00">0.000 QPS</text>
</g>
<!-- n25 -->
<g id="node25" class="node"><title>n25</title>
<path fill="#cbd5e8" stroke="#cbd5e8" d="M123.333,-1000C123.333,-1000 75.6667,-1000 75.6667,-1000 70.3333,-1000 65,-994.667 65,-989.333 65,-989.333 65,-978.667 65,-978.667 65,-973.333 70.3333,-968 75.6667,-968 75.6667,-968 123.333,-968 123.333,-968 128.667,-968 134,-973.333 134,-978.667 134,-978.667 134,-989.333 134,-989.333 134,-994.667 128.667,-1000 123.333,-1000"/>
<text text-anchor="middle" x="99.5" y="-987.2" font-family="Helvetica,sans-Serif" font-size="11.00">sphinx</text>
<text text-anchor="middle" x="99.5" y="-975.2" font-family="Helvetica,sans-Serif" font-size="11.00">datasheets</text>
</g>
<!-- n25&#45;&gt;n16 -->
<g id="edge11" class="edge"><title>n25&#45;&gt;n16</title>
<path fill="none" stroke="black" d="M134.05,-984C178.19,-984 257.541,-984 320.518,-984"/>
<polygon fill="black" stroke="black" points="320.875,-987.5 330.875,-984 320.875,-980.5 320.875,-987.5"/>
<text text-anchor="middle" x="248.5" y="-986.8" font-family="Helvetica,sans-Serif" font-size="9.00">0.035 QPS</text>
</g>
<!-- n26 -->
<g id="node26" class="node"><title>n26</title>
<path fill="#cbd5e8" stroke="#cbd5e8" d="M124.333,-1102C124.333,-1102 74.6667,-1102 74.6667,-1102 69.3333,-1102 64,-1096.67 64,-1091.33 64,-1091.33 64,-1080.67 64,-1080.67 64,-1075.33 69.3333,-1070 74.6667,-1070 74.6667,-1070 124.333,-1070 124.333,-1070 129.667,-1070 135,-1075.33 135,-1080.67 135,-1080.67 135,-1091.33 135,-1091.33 135,-1096.67 129.667,-1102 124.333,-1102"/>
<text text-anchor="middle" x="99.5" y="-1089.2" font-family="Helvetica,sans-Serif" font-size="11.00">sphinx</text>
<text text-anchor="middle" x="99.5" y="-1077.2" font-family="Helvetica,sans-Serif" font-size="11.00">parameters</text>
</g>
<!-- n26&#45;&gt;n21 -->
<g id="edge18" class="edge"><title>n26&#45;&gt;n21</title>
<path fill="none" stroke="black" d="M135.071,-1089.85C160.248,-1092.45 195.19,-1095.65 226,-1097 264.053,-1098.66 306.406,-1096.54 341.264,-1093.72"/>
<polygon fill="black" stroke="black" points="341.686,-1097.2 351.357,-1092.87 341.098,-1090.22 341.686,-1097.2"/>
<text text-anchor="middle" x="248.5" y="-1099.8" font-family="Helvetica,sans-Serif" font-size="9.00">0.000 QPS</text>
</g>
<!-- n26&#45;&gt;n21 -->
<g id="edge21" class="edge"><title>n26&#45;&gt;n21</title>
<path fill="none" stroke="black" d="M135.248,-1086C184.656,-1086 276.385,-1086 341.097,-1086"/>
<polygon fill="black" stroke="black" points="341.24,-1089.5 351.24,-1086 341.24,-1082.5 341.24,-1089.5"/>
<text text-anchor="middle" x="248.5" y="-1088.8" font-family="Helvetica,sans-Serif" font-size="9.00">0.000 QPS</text>
</g>
<!-- n26&#45;&gt;n21 -->
<g id="edge24" class="edge"><title>n26&#45;&gt;n21</title>
<path fill="none" stroke="black" d="M135.234,-1079.31C160.339,-1074.82 195.126,-1069.32 226,-1067 264.11,-1064.13 306.468,-1067.81 341.315,-1072.67"/>
<polygon fill="black" stroke="black" points="341.004,-1076.16 351.404,-1074.14 342.013,-1069.23 341.004,-1076.16"/>
<text text-anchor="middle" x="248.5" y="-1069.8" font-family="Helvetica,sans-Serif" font-size="9.00">0.000 QPS</text>
</g>
<!-- n27 -->
<g id="node27" class="node"><title>n27</title>
<path fill="#cbd5e8" stroke="#cbd5e8" d="M117.833,-711C117.833,-711 81.1667,-711 81.1667,-711 75.8333,-711 70.5,-705.667 70.5,-700.333 70.5,-700.333 70.5,-689.667 70.5,-689.667 70.5,-684.333 75.8333,-679 81.1667,-679 81.1667,-679 117.833,-679 117.833,-679 123.167,-679 128.5,-684.333 128.5,-689.667 128.5,-689.667 128.5,-700.333 128.5,-700.333 128.5,-705.667 123.167,-711 117.833,-711"/>
<text text-anchor="middle" x="99.5" y="-698.2" font-family="Helvetica,sans-Serif" font-size="11.00">sphinx</text>
<text text-anchor="middle" x="99.5" y="-686.2" font-family="Helvetica,sans-Serif" font-size="11.00">products</text>
</g>
<!-- n27&#45;&gt;n11 -->
<g id="edge2" class="edge"><title>n27&#45;&gt;n11</title>
<path fill="none" stroke="black" d="M128.816,-705.213C167.043,-718.894 237.359,-743.685 298,-763 313.897,-768.063 331.108,-773.261 347.283,-778.021"/>
<polygon fill="black" stroke="black" points="346.618,-781.473 357.199,-780.923 348.585,-774.755 346.618,-781.473"/>
<text text-anchor="middle" x="248.5" y="-756.8" font-family="Helvetica,sans-Serif" font-size="9.00">0.011 QPS</text>
</g>
<!-- n27&#45;&gt;n12 -->
<g id="edge27" class="edge"><title>n27&#45;&gt;n12</title>
<path fill="none" stroke="black" d="M128.597,-698.047C167.391,-702.255 239.612,-710.087 301.693,-716.82"/>
<polygon fill="black" stroke="black" points="301.64,-720.335 311.96,-717.933 302.395,-713.376 301.64,-720.335"/>
<text text-anchor="middle" x="248.5" y="-715.8" font-family="Helvetica,sans-Serif" font-size="9.00">0.000 QPS</text>
</g>
<!-- n27&#45;&gt;n14 -->
<g id="edge12" class="edge"><title>n27&#45;&gt;n14</title>
<path fill="none" stroke="black" d="M128.799,-689.46C154.162,-684.687 192.433,-677.96 226,-674 245.895,-671.653 267.028,-669.685 287.668,-668.049"/>
<polygon fill="black" stroke="black" points="288.052,-671.53 297.754,-667.273 287.515,-664.551 288.052,-671.53"/>
<text text-anchor="middle" x="248.5" y="-676.8" font-family="Helvetica,sans-Serif" font-size="9.00">0.019 QPS</text>
</g>
<!-- n27&#45;&gt;n23 -->
<g id="edge26" class="edge"><title>n27&#45;&gt;n23</title>
<path fill="none" stroke="black" d="M128.811,-684.528C154.183,-675.22 192.46,-661.366 226,-650 257.816,-639.218 265.879,-636.836 298,-627 314.202,-622.039 331.723,-616.825 348.12,-612.011"/>
<polygon fill="black" stroke="black" points="349.547,-615.24 358.161,-609.071 347.581,-608.522 349.547,-615.24"/>
<text text-anchor="middle" x="248.5" y="-652.8" font-family="Helvetica,sans-Serif" font-size="9.00">0.000 QPS</text>
</g>
</g>
</svg>
